<mxfile host="app.diagrams.net" agent="Mozilla/5.0 (Windows NT 10.0; Win64; x64) AppleWebKit/537.36 (KHTML, like Gecko) Chrome/127.0.0.0 Safari/537.36" version="24.7.6">
  <diagram id="sYOkgYfF0y2E1Brcdf2A" name="Page-1">
    <mxGraphModel dx="2000" dy="1146" grid="1" gridSize="10" guides="1" tooltips="1" connect="1" arrows="1" fold="1" page="1" pageScale="1" pageWidth="827" pageHeight="1169" math="0" shadow="0">
      <root>
        <mxCell id="0" />
        <mxCell id="1" parent="0" />
        <mxCell id="mYkI8sfm15uqMzeyu2eb-11" value="root" style="rounded=0;whiteSpace=wrap;html=1;verticalAlign=top;" parent="1" vertex="1">
          <mxGeometry x="240" y="400" width="320" height="310" as="geometry" />
        </mxCell>
        <mxCell id="mYkI8sfm15uqMzeyu2eb-5" value="non root" style="rounded=0;whiteSpace=wrap;html=1;verticalAlign=top;" parent="1" vertex="1">
          <mxGeometry x="240" y="40" width="320" height="310" as="geometry" />
        </mxCell>
        <mxCell id="mYkI8sfm15uqMzeyu2eb-12" style="edgeStyle=orthogonalEdgeStyle;rounded=0;orthogonalLoop=1;jettySize=auto;html=1;exitX=0;exitY=0.5;exitDx=0;exitDy=0;entryX=0;entryY=0.5;entryDx=0;entryDy=0;" parent="1" source="mYkI8sfm15uqMzeyu2eb-1" target="mYkI8sfm15uqMzeyu2eb-2" edge="1">
          <mxGeometry relative="1" as="geometry" />
        </mxCell>
        <mxCell id="mYkI8sfm15uqMzeyu2eb-1" value="ring 0" style="rounded=1;whiteSpace=wrap;html=1;verticalAlign=top;" parent="1" vertex="1">
          <mxGeometry x="345" y="600" width="150" height="100" as="geometry" />
        </mxCell>
        <mxCell id="mYkI8sfm15uqMzeyu2eb-2" value="ring 3" style="rounded=1;whiteSpace=wrap;html=1;verticalAlign=top;" parent="1" vertex="1">
          <mxGeometry x="345" y="470" width="150" height="100" as="geometry" />
        </mxCell>
        <mxCell id="mYkI8sfm15uqMzeyu2eb-7" style="edgeStyle=orthogonalEdgeStyle;rounded=0;orthogonalLoop=1;jettySize=auto;html=1;exitX=1;exitY=0.5;exitDx=0;exitDy=0;entryX=1;entryY=0.5;entryDx=0;entryDy=0;" parent="1" source="mYkI8sfm15uqMzeyu2eb-3" target="mYkI8sfm15uqMzeyu2eb-1" edge="1">
          <mxGeometry relative="1" as="geometry">
            <Array as="points">
              <mxPoint x="640" y="280" />
              <mxPoint x="640" y="650" />
            </Array>
          </mxGeometry>
        </mxCell>
        <mxCell id="mYkI8sfm15uqMzeyu2eb-3" value="ring 0" style="rounded=1;whiteSpace=wrap;html=1;verticalAlign=top;" parent="1" vertex="1">
          <mxGeometry x="345" y="230" width="150" height="100" as="geometry" />
        </mxCell>
        <mxCell id="mYkI8sfm15uqMzeyu2eb-4" value="ring 3" style="rounded=1;whiteSpace=wrap;html=1;verticalAlign=top;" parent="1" vertex="1">
          <mxGeometry x="345" y="110" width="150" height="100" as="geometry" />
        </mxCell>
        <mxCell id="mYkI8sfm15uqMzeyu2eb-6" value="" style="endArrow=classic;html=1;exitX=1;exitY=0.5;exitDx=0;exitDy=0;entryX=0.992;entryY=0.367;entryDx=0;entryDy=0;entryPerimeter=0;edgeStyle=orthogonalEdgeStyle;" parent="1" source="mYkI8sfm15uqMzeyu2eb-4" target="mYkI8sfm15uqMzeyu2eb-1" edge="1">
          <mxGeometry width="50" height="50" relative="1" as="geometry">
            <mxPoint x="550" y="210" as="sourcePoint" />
            <mxPoint x="600" y="160" as="targetPoint" />
            <Array as="points">
              <mxPoint x="700" y="160" />
              <mxPoint x="700" y="637" />
            </Array>
          </mxGeometry>
        </mxCell>
        <mxCell id="mYkI8sfm15uqMzeyu2eb-10" value="敏感指令造成vm exit&lt;br&gt;&lt;br&gt;跳出到ring0 因为只有ring 0 能够执行vm launch指令" style="text;html=1;align=center;verticalAlign=middle;resizable=0;points=[];autosize=1;" parent="1" vertex="1">
          <mxGeometry x="600" y="490" width="290" height="50" as="geometry" />
        </mxCell>
        <mxCell id="lBw9Vkx2aCN8lv4SeDji-2" value="kvm_guest_apic_eoi_write" style="whiteSpace=wrap;html=1;" vertex="1" parent="1">
          <mxGeometry x="230" y="840" width="290" height="60" as="geometry" />
        </mxCell>
        <mxCell id="lBw9Vkx2aCN8lv4SeDji-3" value="clear&amp;nbsp;KVM_PV_EOI_BIT" style="whiteSpace=wrap;html=1;" vertex="1" parent="1">
          <mxGeometry x="520" y="840" width="290" height="60" as="geometry" />
        </mxCell>
        <mxCell id="lBw9Vkx2aCN8lv4SeDji-4" value="Guest" style="whiteSpace=wrap;html=1;" vertex="1" parent="1">
          <mxGeometry x="80" y="840" width="150" height="60" as="geometry" />
        </mxCell>
        <mxCell id="lBw9Vkx2aCN8lv4SeDji-5" value="Host" style="whiteSpace=wrap;html=1;" vertex="1" parent="1">
          <mxGeometry x="80" y="900" width="150" height="60" as="geometry" />
        </mxCell>
        <mxCell id="lBw9Vkx2aCN8lv4SeDji-6" value="apic_sync_pv_eoi_from_guest" style="whiteSpace=wrap;html=1;" vertex="1" parent="1">
          <mxGeometry x="810" y="900" width="290" height="60" as="geometry" />
        </mxCell>
        <mxCell id="lBw9Vkx2aCN8lv4SeDji-7" value="apic_set_eoi" style="whiteSpace=wrap;html=1;" vertex="1" parent="1">
          <mxGeometry x="1100" y="900" width="290" height="60" as="geometry" />
        </mxCell>
      </root>
    </mxGraphModel>
  </diagram>
</mxfile>
